<?xml version="1.0" standalone="no"?>
<!DOCTYPE svg PUBLIC "-//W3C//DTD SVG 20010904//EN"
 "http://www.w3.org/TR/2001/REC-SVG-20010904/DTD/svg10.dtd">
<svg version="1.0" xmlns="http://www.w3.org/2000/svg"
 width="512.000000pt" height="512.000000pt" viewBox="0 0 512.000000 512.000000"
 preserveAspectRatio="xMidYMid meet">
<metadata>
Created by potrace 1.11, written by Peter Selinger 2001-2013
</metadata>
<g transform="translate(0.000000,512.000000) scale(0.100000,-0.100000)"
fill="#000000" stroke="none">
<path d="M680 4939 c-170 -25 -320 -131 -396 -281 -57 -112 -54 2 -54 -2058 0
-2088 -4 -1948 62 -2072 37 -69 147 -177 216 -212 117 -59 -4 -56 2062 -56
2087 0 1948 -4 2072 62 70 37 176 145 212 215 59 118 56 -6 56 2073 l-1 1905
-22 66 c-31 90 -82 173 -142 227 -69 62 -191 119 -285 131 -92 12 -3698 13
-3780 0z m3820 -236 c-6 -10 -37 -128 -69 -263 l-58 -245 -32 3 c-18 1 -78 16
-133 32 -55 17 -102 30 -103 30 -2 0 -1 9 2 20 3 11 9 20 14 20 5 0 9 5 9 12
0 6 35 45 78 87 77 77 166 190 157 200 -3 3 -82 -71 -175 -164 -130 -130 -172
-166 -182 -158 -7 6 -64 28 -125 49 l-113 38 358 177 c196 98 363 178 370 178
9 1 9 -4 2 -16z m-3410 -38 c32 -29 45 -87 29 -120 -30 -60 -98 -85 -153 -55
-22 11 -32 9 -93 -25 -37 -20 -71 -40 -75 -44 -4 -4 -4 -33 0 -64 l7 -58 77
-42 77 -41 39 22 c22 12 54 22 72 22 66 0 140 -88 125 -149 -20 -81 -100 -125
-174 -95 -47 18 -68 47 -77 103 -6 39 -10 43 -91 86 -75 41 -87 45 -102 32
-56 -49 -121 -59 -187 -26 -77 37 -109 139 -69 222 32 68 111 103 183 82 24
-8 52 -21 62 -30 16 -15 23 -13 91 27 68 40 74 47 80 83 4 26 17 48 39 68 29
25 39 29 77 24 24 -2 53 -13 63 -22z m3059 -511 c5 -5 -14 -41 -39 -74 l-20
-25 0 59 0 58 27 -7 c16 -4 30 -9 32 -11z m-468 -416 c44 -25 69 -69 69 -125
0 -30 -18 -71 -81 -183 -93 -166 -118 -196 -171 -211 -24 -6 -206 -9 -497 -7
-446 3 -460 4 -487 24 -50 37 -69 71 -68 124 0 41 13 70 86 202 60 107 95 160
118 176 l33 22 480 0 c473 0 480 0 518 -22z m-562 -911 c53 -19 93 -75 94
-134 1 -43 -9 -65 -82 -193 -45 -80 -96 -158 -112 -175 l-29 -30 -493 -3
c-470 -2 -493 -1 -523 17 -42 25 -78 101 -70 144 4 18 46 102 95 187 126 220
64 200 630 199 326 0 466 -4 490 -12z m-554 -927 c45 -10 100 -63 111 -106 11
-44 -7 -92 -96 -249 -59 -104 -92 -153 -114 -166 -29 -18 -59 -19 -509 -19
-524 0 -509 -2 -561 60 -20 24 -26 42 -26 78 0 40 12 68 84 195 93 164 115
193 160 206 41 12 900 13 951 1z m1832 -212 c139 -107 220 -289 230 -516 5
-112 8 -126 29 -149 40 -43 76 -129 83 -199 4 -35 6 -66 4 -67 -1 -2 -56 7
-121 20 l-119 23 -39 -39 c-50 -50 -105 -66 -169 -50 -44 11 -97 50 -106 78
-4 11 -26 10 -127 -9 -67 -13 -125 -20 -129 -16 -11 11 17 137 42 186 13 26
35 61 49 78 24 28 26 37 26 140 0 219 90 419 239 528 25 18 48 34 50 34 2 0
29 -19 58 -42z m-3372 -458 c4 -6 6 -95 5 -197 -1 -196 -3 -206 -45 -201 -19
3 -21 14 -29 182 -9 197 -4 226 38 226 14 0 28 -5 31 -10z m-157 -72 c9 -9 12
-83 12 -269 0 -221 -2 -260 -16 -273 -18 -19 -20 -19 -45 -6 -18 10 -19 24
-19 279 0 147 3 271 7 274 11 11 48 8 61 -5z m311 -42 c19 -23 10 -136 -11
-150 -13 -8 -23 -8 -35 0 -22 14 -31 127 -12 150 15 18 43 18 58 0z m-470
-180 c8 -9 11 -72 9 -202 -3 -189 -3 -189 -26 -192 -48 -7 -52 7 -52 195 0
101 4 182 10 194 12 22 43 25 59 5z m-155 -132 c20 -19 22 -112 3 -138 -8 -11
-23 -17 -38 -14 -22 3 -24 7 -27 71 -4 89 21 122 62 81z m3846 -189 c37 -40
38 -101 2 -171 -17 -32 -39 -71 -49 -86 l-19 -27 -43 80 c-49 91 -55 145 -24
188 40 53 92 59 133 16z"/>
<path d="M980 4616 c-15 -19 -9 -56 11 -69 9 -5 28 -7 42 -3 48 12 32 86 -19
86 -12 0 -27 -7 -34 -14z"/>
<path d="M593 4445 c-99 -43 -65 -185 44 -185 104 0 138 127 49 181 -37 22
-50 23 -93 4z"/>
<path d="M1013 4164 c-15 -23 -15 -29 -2 -52 21 -37 43 -48 76 -36 65 23 48
114 -22 114 -26 0 -39 -6 -52 -26z"/>
<path d="M2830 3627 c-20 -10 -26 -21 -28 -54 -3 -34 1 -44 24 -62 15 -11 34
-21 43 -21 26 0 61 -29 61 -50 0 -11 -11 -27 -25 -36 -21 -14 -31 -15 -51 -6
-13 7 -27 19 -30 27 -8 19 -34 20 -34 1 0 -32 35 -58 78 -58 53 1 80 16 88 49
12 48 -7 76 -66 100 -40 15 -56 28 -58 43 -7 46 55 70 80 30 14 -22 38 -27 38
-7 0 18 -12 32 -37 46 -28 14 -52 14 -83 -2z"/>
<path d="M3026 3617 c-49 -49 -30 -96 49 -126 42 -16 51 -23 53 -47 7 -54 -53
-72 -94 -27 -33 35 -54 18 -24 -20 18 -23 29 -27 70 -27 41 0 52 4 69 26 12
15 21 34 21 44 0 29 -37 66 -79 79 -22 6 -45 20 -51 31 -13 24 -13 26 6 44 22
22 50 20 74 -6 16 -17 23 -19 32 -10 18 18 -19 51 -64 59 -30 4 -41 1 -62 -20z"/>
<path d="M3220 3500 c0 -107 3 -130 14 -130 11 0 16 15 18 52 4 75 26 76 74 4
23 -36 44 -56 56 -56 21 0 21 1 -23 66 l-28 41 30 22 c22 16 29 30 29 54 0 57
-30 77 -114 77 l-56 0 0 -130z m132 74 c18 -39 0 -58 -56 -62 l-46 -3 0 45 0
46 45 0 c39 0 47 -4 57 -26z"/>
<path d="M2474 2746 c-29 -29 -34 -41 -34 -82 0 -42 4 -51 41 -86 l40 -38 -2
-93 -2 -92 39 0 c28 0 39 4 39 15 0 10 12 16 35 18 40 4 49 15 46 51 -3 22 -9
27 -41 31 -36 5 -38 7 -38 40 0 27 8 43 36 72 32 31 37 42 37 83 0 40 -5 52
-34 81 -29 29 -41 34 -81 34 -40 0 -52 -5 -81 -34z m114 -75 c5 -32 -23 -54
-49 -40 -19 10 -26 49 -12 63 4 4 19 6 33 4 18 -2 26 -10 28 -27z"/>
<path d="M1679 1793 c0 -4 0 -61 1 -126 1 -112 0 -119 -19 -124 -29 -8 -26
-33 3 -33 14 0 27 4 30 8 11 18 8 276 -3 280 -6 2 -11 0 -12 -5z"/>
<path d="M2240 1700 c0 -89 0 -90 -25 -90 -45 0 -26 -19 23 -22 l47 -3 -42
-29 c-43 -29 -54 -46 -30 -46 20 0 98 61 91 71 -3 5 9 9 25 9 20 0 31 -5 31
-14 0 -19 89 -71 101 -59 6 6 -8 22 -38 41 l-48 32 48 0 c26 0 47 5 47 10 0 6
-11 10 -25 10 -25 0 -25 1 -25 90 l0 90 -90 0 -90 0 0 -90z m150 55 c0 -12
-13 -15 -60 -15 -47 0 -60 3 -60 15 0 12 13 15 60 15 47 0 60 -3 60 -15z m0
-45 c0 -6 -27 -10 -60 -10 -33 0 -60 4 -60 10 0 6 27 10 60 10 33 0 60 -4 60
-10z m5 -40 c4 -6 -18 -10 -59 -10 -37 0 -66 4 -66 10 0 6 26 10 59 10 33 0
63 -4 66 -10z m0 -50 c-3 -5 -33 -10 -66 -10 -33 0 -59 4 -59 10 0 6 29 10 66
10 41 0 63 -4 59 -10z"/>
<path d="M1900 1761 c0 -6 21 -11 48 -13 l47 -3 0 -95 0 -95 -62 -3 c-35 -2
-63 -7 -63 -12 0 -6 58 -10 140 -10 87 0 140 4 140 10 0 6 -28 10 -65 10 l-66
0 3 98 3 97 53 3 c28 2 52 7 52 13 0 5 -49 9 -115 9 -66 0 -115 -4 -115 -9z"/>
<path d="M1586 1683 c-3 -21 -14 -54 -25 -75 -17 -30 -18 -37 -6 -42 9 -3 19
3 26 15 19 36 48 127 42 133 -16 16 -31 2 -37 -31z"/>
<path d="M1753 1713 c-8 -3 -1 -26 19 -71 37 -80 36 -78 47 -66 13 12 -50 143
-66 137z"/>
<path d="M4263 1581 c-106 -105 -160 -247 -168 -435 -3 -89 -6 -101 -29 -125
-30 -32 -62 -101 -71 -158 -8 -51 -10 -51 120 -23 84 18 91 18 100 2 22 -36
68 -72 102 -78 46 -9 116 24 137 64 l15 29 105 -23 c59 -12 108 -18 111 -14 8
12 -13 107 -31 142 -9 18 -27 45 -41 59 -22 24 -25 36 -28 130 -4 122 -22 196
-71 297 -40 82 -139 192 -172 192 -12 0 -46 -26 -79 -59z m120 -185 c45 -19
68 -48 74 -94 9 -68 -51 -142 -115 -142 -101 0 -159 124 -95 200 42 50 80 60
136 36z"/>
<path d="M4285 1335 c-49 -48 -16 -125 53 -125 69 0 99 87 46 129 -35 28 -69
26 -99 -4z"/>
<path d="M4307 572 c-10 -10 -17 -32 -17 -48 0 -32 34 -114 48 -114 12 0 52
87 52 113 0 30 -27 67 -49 67 -10 0 -25 -8 -34 -18z"/>
</g>
</svg>
